<?xml version="1.0" encoding="UTF-8"?>
<svg width="752pt" height="752pt" version="1.1" viewBox="0 0 752 752" xmlns="http://www.w3.org/2000/svg">
 <g>
  <path d="m269.45 406.79 17.996 41.676 17.523-41.676-11.84 8.9961v-139.23l11.84-11.84v-41.203l-17.523 17.523-17.996-17.523v41.203l11.84 11.84v139.23z"/>
  <path d="m174.73 288.39h-5.6836v165.75c0 19.418 15.629 35.047 35.047 35.047h18.469c19.418 0 35.047-15.629 35.047-35.047v-165.75h-17.996v-6.1562l11.84-11.84v-35.52l-17.527 17.996-17.996-17.996v35.52l11.84 11.84v6.1562h-17.52v-74.355l11.84-11.84v-37.887l-17.523 17.523-17.996-17.52v37.887l11.84 11.84v3.3164l-17.996 17.996-17.523-18v35.52l11.84 11.84zm11.84-23.68 11.84-11.84v35.52h-11.84zm-5.6836 35.516h65.355v26.992l-65.355 54.938zm0 97.559 65.355-54.934v31.73l-65.355 44.516zm0 35.992 65.355-44.988v65.828c0 12.785-10.418 23.207-23.207 23.207h-18.469c-12.785 0-23.207-10.418-23.207-23.207v-20.84z"/>
  <path d="m344.75 480.19-4.2617 2.8398 1.8945 4.7344c3.7891 8.5234 6.6289 20.836 8.5234 33.625-14.207-0.47266-29.363-0.47266-44.043 0.94531h-0.94531c-9.9453 0.94531-20.363 2.3672-32.203 2.8398-49.254 3.3164-69.617-7.5781-86.191-16.102-3.7891-1.8945-8.5234-1.8945-12.785 0-3.7891 1.8945-6.6289 5.6836-7.5781 10.418l-3.3164 25.102c-1.4219 9.9453 4.7344 19.891 14.68 22.258 12.312 3.3164 24.625 4.7344 42.148 4.7344 14.207 0 31.73-0.94531 55.883-2.3672 12.785-0.94531 24.625-1.8945 35.047-3.3164 15.156-1.4219 30.309-1.4219 44.043-0.47266v10.418l-0.47266 6.1562 60.617 6.1562 0.47266-6.1562c1.8945-26.52 13.734-70.562 24.152-89.98l2.3672-4.2617-3.7891-2.8398c-23.207-19.883-65.355-21.777-94.242-4.7305zm-34.098 73.406c-10.418 0.94531-21.785 2.3672-34.57 3.3164-52.094 3.3164-73.406 3.7891-94.242-1.8945-4.2617-0.94531-6.6289-5.2109-6.1562-8.9961l3.3164-25.102c0-0.94531 0.47266-1.4219 0.94531-1.4219h0.94531 0.94531c17.051 8.9961 39.781 20.836 92.348 17.523 11.84-0.94531 22.258-1.8945 32.676-2.8398h0.94531c14.207-1.4219 30.309-1.4219 44.516-0.94531 0.94531 6.6289 1.8945 13.734 2.3672 19.891-13.727-0.95312-28.883-1.4258-44.035 0.46875zm94.242 20.84-37.414-3.7891v-5.2109l-0.47266-6.6289c0-2.8398-0.47266-6.1562-0.94531-9.4727-1.8945-19.891-5.6836-44.988-11.367-61.094 22.73-10.891 53.516-9.9453 72.457 2.3672-9 20.367-18.945 57.305-22.258 83.828z"/>
  <path d="m344.75 429.04c0.47266 0 1.4219 0.47266 1.8945 0.47266 1.8945 0 3.7891-0.94531 4.7344-2.3672 0 0 7.5781-9.9453 18.941-14.207v11.84c-0.47266 8.0508 5.2109 14.68 15.629 19.418 5.2109 2.3672 10.891 3.3164 16.102 3.3164 2.3672 0 4.7344 0 7.1055-0.47266 3.3164-0.47266 11.84-4.2617 13.734-6.1562 7.1055-6.1562 11.367-10.891 12.312-22.258v-183.28c-0.47266-8.0508-4.2617-16.102-10.891-22.73-7.1055-7.1055-33.152-26.992-80.98 0-1.8945 0.94531-2.8398 2.8398-2.8398 5.2109v34.098c0 0.47266 0 1.4219 0.47266 1.8945l23.68 69.145-23.68 62.984c-0.47266 0.47266-0.47266 1.4219-0.47266 1.8945l-0.003906 35.516c0 2.8398 1.418 5.2109 4.2617 5.6836zm78.613-10.895c-0.47266 6.1562-1.8945 8.0508-8.0508 13.262-1.4219 0.94531-6.1562 2.8398-7.5781 3.3164-2.3672 0-5.2109 0.47266-8.5234 0v-22.73h-11.84v18.941c-3.7891-2.3672-6.1562-4.7344-6.1562-7.1055v-74.824c7.1055 2.3672 14.207 3.7891 21.312 3.7891 6.6289 0 13.262-0.94531 19.891-3.3164zm0-80.98c-12.785 5.2109-26.992 5.2109-39.781 0l-1.8945-0.94531v-10.891c7.1055 2.3672 14.207 3.7891 21.312 3.7891 6.6289 0 13.262-0.94531 19.891-3.3164zm0-23.68c-12.785 5.2109-26.992 5.2109-39.781 0l-1.8945-0.94531v-57.305c2.8398 1.4219 6.6289 2.8398 10.891 3.7891 5.2109 1.4219 9.4727 1.8945 13.262 1.8945v26.52h11.84v-27.941c1.8945-0.47266 3.7891-1.4219 5.2109-2.3672zm-71.035-62.512v-29.836c38.359-20.836 58.25-5.6836 63.461-0.47266 6.6289 6.6289 9.4727 16.102 6.1562 21.785-3.3164 6.1562-13.262 8.0508-26.047 4.7344-10.891-2.8398-13.734-6.1562-13.734-7.1055 0-1.4219 1.8945-4.7344 6.1562-7.1055 5.6836-3.3164 10.891-3.7891 12.312-2.8398 0.47266 0 0.47266 1.4219 0 4.2617l11.84 2.3672c1.8945-9.4727-2.3672-14.207-5.2109-16.102-6.6289-4.7344-17.523-2.3672-25.102 2.3672-8.0508 4.7344-12.312 11.367-11.84 17.996v62.039zm0 138.29 17.996-47.832v58.723c-7.1055 1.8945-13.262 5.6836-17.996 8.9961z"/>
  <path d="m589.11 282.71h-47.359v-35.52c7.5781-5.6836 11.84-14.207 11.84-23.68 0-16.102-13.262-29.836-29.836-29.836-16.574 0-29.359 13.262-29.359 29.836 0 9.4727 4.2617 17.996 11.84 23.68v35.52h-47.359v34.57l35.52 6.6289-5.6836 177.12v1.4219l35.52 85.246 35.52-85.246-6.1602-178.54 35.52-7.1055zm-64.883 274.68-23.68-56.828 5.6836-174.28 17.996 3.7891 17.996-3.7891 5.6836 174.28zm53.043-250.05-53.516 10.418-53.039-10.418v-12.785h47.359l-0.003906-54.465-2.8398-1.418c-5.6836-3.3164-8.9961-8.9961-8.9961-15.156 0-9.9453 8.0508-17.996 17.996-17.996s17.996 8.0508 17.996 17.996c0 6.1562-3.3164 11.84-8.9961 15.156l-2.8398 1.8945v53.988h47.359l-0.007812 12.785z"/>
 </g>
</svg>
