<svg xmlns="http://www.w3.org/2000/svg" viewBox="0 0 281 765">
    <path fill="none" d="M275.08,719a32.47,32.47,0,0,0-1.23-4.29c-1.71-4.36-1.13-582.66-1.13-582.66s0-30.43-.58-49c-.36-11.85,1.72-26.54,3.28-35.6a4,4,0,0,1-1.49-1.64c-1.7-3.61-2.41-7.49-1-11.35a6.27,6.27,0,0,1,.93-1.69c-.7-3.15-.33-6.48-1.3-9.54a42.76,42.76,0,0,0-3.54-7,18.66,18.66,0,0,0-5-6.37c-2-1.48-4.08-2.5-5.8-4.27-1.74-.72-3.49-1.42-5.2-2.21l-.4-.21H29.41a5.1,5.1,0,0,1-3.58,1.27,5.83,5.83,0,0,1-2.25,1.44L23.19,6,23,6.05c-.42.25-.87.47-1.29.74a7.34,7.34,0,0,0-1.22.84c1-.91-.26.24-.45.41a5.85,5.85,0,0,1-2.83,1.33,52.05,52.05,0,0,0-3.9,4c-4.59,5.47-4.83,13.51-6.24,20.2,0,.14-.08.27-.11.4a11.08,11.08,0,0,1,.29,1.52c-.16-1.2.09.35.14.59q.14.63.3,1.26a21,21,0,0,0,.88,2.57c1.07,2.59-1.17,5.4-3.49,6.15a3.22,3.22,0,0,1-.7.14C5.94,55.14,8.24,70.62,7.86,83c-.58,18.57-.58,49-.58,49s.64,576.13-1,587.33a5.14,5.14,0,0,1,3.07,6,29.15,29.15,0,0,1-2.67,7,4.68,4.68,0,0,1,.85,2.91c-.27,14.38,12.13,22.59,23.77,28.18a5.7,5.7,0,0,1,.88.53h216.9a5.09,5.09,0,0,1,2.84-1.08,4.1,4.1,0,0,1,1.59-1.45c1-.5,2.07-.93,3.12-1.37l.64-.27-.55.24a6.87,6.87,0,0,0,1.29-.6c.22-.11.45-.18.68-.27,1-1,1.86-1.92,2.41-2.37,2.91-2.43,6.23-4.26,7.86-7.81a4.38,4.38,0,0,1,1.74-2c.81-4.9,2.13-9.72,2.58-14.7a5.32,5.32,0,0,1,.57-2c0-.19-.07-.36-.11-.51-.38-1.74-.87-3.44-1.28-5.17A4.8,4.8,0,0,1,275.08,719Z"></path><path fill="#C53131" d="M275.28,654.52v-554c.77-12.76,2.64-38.62,5.52-48.14l.21-.69-.6-.38a21.36,21.36,0,0,1-3.68-3.14,62.8,62.8,0,0,1,2.34-9.56l.12-.34L276.7,10.17l-1.08-.34c-2.52-.8-9.71-4-9.71-8.12V0H15.09V1.71c0,4.13-7,7.26-9.71,8.12l-1.08.34L1.82,38.28l.12.34a64,64,0,0,1,2.34,9.54A21,21,0,0,1,.6,51.32L0,51.7l.21.69C3.09,61.89,5,87.7,5.72,100.48v554C5,667.23,3.09,703.1.21,712.61L0,713.3l.6.38a20.83,20.83,0,0,1,3.68,3.14,61.64,61.64,0,0,1-2.34,9.56l-.12.35,2.48,28.1,1.08.34c2.7.86,9.71,4,9.71,8.12V765H265.91v-1.71c0-4.13,7-7.26,9.71-8.12l1.08-.34,2.48-28.1-.12-.35a64,64,0,0,1-2.34-9.54,21,21,0,0,1,3.68-3.16l.6-.38-.21-.69c-2.88-9.5-4.74-45.31-5.51-58.09m-3.84,73.29s.45,1.07,1,2.61a29.79,29.79,0,0,1-1.33,12.42C268.18,751.6,261,758,250.25,761.58H30.68c-23-7.63-22.8-25.7-22.16-31.09.59-1.63,1.06-2.75,1.09-2.83a12.21,12.21,0,0,0-2.1-9.76c3.38-18.83,1.66-42.81,1.58-43.89V91.12c.09-1.19,1.81-25.21-1.57-44.05a12.41,12.41,0,0,0,2.05-9.88s-.45-1.07-1-2.61A29.8,29.8,0,0,1,9.87,22.16C12.82,13.4,20,7,30.76,3.42H250.32c23.05,7.63,22.8,25.7,22.16,31.09-.59,1.63-1.06,2.75-1.09,2.84a12.19,12.19,0,0,0,2.1,9.75c-3.38,18.83-1.66,42.81-1.58,43.89V673.88c-.09,1.19-1.81,25.21,1.57,44a12.41,12.41,0,0,0-2.05,9.88m7.41-675.3c-1.71,6.15-3,17.57-4,28.45a191.48,191.48,0,0,1,1.5-30.51,23.59,23.59,0,0,0,2.5,2.06m-5.72-14.58c.09-.21,1.13-2.72,2.12-5.82l.51,5.74A61.16,61.16,0,0,0,274,44.4a9.5,9.5,0,0,1-.89-6.47m.42-25.21,1.24,14.07c-.25,1.21-.59,2.48-1,3.69a30.1,30.1,0,0,0-1.55-8.72c-2-6-6.88-13.57-18.42-18.34h8.89c1.25,5.24,8,8.26,10.8,9.3M18.25,3.42h8.88C10.49,10.29,7.46,23.17,7.21,30.61c-.38-1.25-.74-2.56-1-3.82L7.45,12.72c2.79-1,9.55-4.06,10.8-9.3m-13,34.43.51-5.74c1,3.07,2,5.53,2.07,5.66A9.73,9.73,0,0,1,7,44.33a62.24,62.24,0,0,0-1.73-6.48m-.6,12.59A191.42,191.42,0,0,1,6.15,81c-1-10.87-2.29-22.29-4-28.44a21.9,21.9,0,0,0,2.49-2.07M2.15,712.49c1.71-6.15,3-17.57,4-28.44a191.41,191.41,0,0,1-1.5,30.5,23.59,23.59,0,0,0-2.5-2.06m5.72,14.58c-.09.21-1.13,2.72-2.12,5.82l-.51-5.74A60.54,60.54,0,0,0,7,720.6a9.5,9.5,0,0,1,.89,6.47m-.42,25.21L6.21,738.21c.25-1.21.59-2.47,1-3.69a30,30,0,0,0,1.55,8.72c2,6,6.88,13.57,18.42,18.34H18.25c-1.25-5.24-8-8.26-10.8-9.3m255.3,9.3h-8.88c16.64-6.86,19.67-19.75,19.92-27.19.38,1.26.74,2.56,1,3.82l-1.24,14.07c-2.79,1-9.55,4.06-10.8,9.3m13-34.43-.51,5.74c-1-3.08-2-5.53-2.07-5.66a9.73,9.73,0,0,1,.85-6.56,62.24,62.24,0,0,0,1.73,6.48m.6-12.59a191.37,191.37,0,0,1-1.51-30.51c1,10.88,2.29,22.29,4,28.44a21.9,21.9,0,0,0-2.49,2.07"></path>
    </svg>